<svg width="40" height="32" viewBox="0 0 40 32" fill="none" xmlns="http://www.w3.org/2000/svg">
  <path opacity="0.15" fill-rule="evenodd" clip-rule="evenodd" d="M3 1C1.89543 1 1 1.89543 1 3V28.5C1 29.6046 1.89543 30.5 3 30.5H37C38.1046 30.5 39 29.6046 39 28.5V3C39 1.89543 38.1046 1 37 1H3ZM4 8.5H36V27.5H4V8.5Z" fill="url(#genai_fill)"/>

  <rect x="0.75" y="0.75" width="38.5" height="30.5" rx="2.25" stroke="url(#genai_stroke)" stroke-width="1.5"/>
  <path d="M1.5 8.25H38.5" stroke="url(#genai_stroke)" stroke-width="1.5"/>
  <circle cx="4.75" cy="4.5" r="0.9" fill="url(#genai_stroke)"/>
  <circle cx="7.9" cy="4.5" r="0.9" fill="url(#genai_stroke)"/>
  <circle cx="11.05" cy="4.5" r="0.9" fill="url(#genai_stroke)"/>
  <path d="M14.5 4.5H35" stroke="url(#genai_stroke)" stroke-width="1.5" stroke-linecap="round"/>

  <path d="M9.5 13.25C9.5 11.7312 10.7312 10.5 12.25 10.5H25.75C27.2688 10.5 28.5 11.7312 28.5 13.25V21C28.5 22.5188 27.2688 23.75 25.75 23.75H18L13.25 27V23.75H12.25C10.7312 23.75 9.5 22.5188 9.5 21V13.25Z" stroke="url(#genai_stroke)" stroke-width="1.4" stroke-linejoin="round"/>

  <path d="M14 15.25H20.5M14 18.25H18.5M14 21.25H20" stroke="url(#genai_stroke)" stroke-width="1.35" stroke-linecap="round"/>

  <path d="M24.25 12.25C24.457 13.697 25.303 14.543 26.75 14.75C25.303 14.957 24.457 15.803 24.25 17.25C24.043 15.803 23.197 14.957 21.75 14.75C23.197 14.543 24.043 13.697 24.25 12.25Z" fill="url(#genai_stroke)"/>
  <path d="M30.75 17C30.9156 18.158 31.592 18.8344 32.75 19C31.592 19.1656 30.9156 19.842 30.75 21C30.5844 19.842 29.908 19.1656 28.75 19C29.908 18.8344 30.5844 18.158 30.75 17Z" fill="url(#genai_stroke)"/>

  <circle cx="32.25" cy="12" r="1.15" stroke="url(#genai_stroke)" stroke-width="1.15"/>
  <path d="M28.5 13.5L31.18 12.42M31.8 13.08L31.05 17.7" stroke="url(#genai_stroke)" stroke-width="1.05" stroke-linecap="round"/>

  <defs>
    <linearGradient id="genai_fill" x1="3" y1="1" x2="27" y2="35" gradientUnits="userSpaceOnUse">
      <stop offset="0.259336" stop-color="#FFDB6E"/>
      <stop offset="1" stop-color="#FFBC5E"/>
    </linearGradient>
    <linearGradient id="genai_stroke" x1="2.25" y1="0.75" x2="28" y2="36" gradientUnits="userSpaceOnUse">
      <stop offset="0.259336" stop-color="#FFDB6E"/>
      <stop offset="1" stop-color="#FFBC5E"/>
    </linearGradient>
  </defs>
</svg>
